<svg width="280" height="98" viewBox="0 0 280 98" fill="none" xmlns="http://www.w3.org/2000/svg">
<rect width="280" height="98" rx="8" fill="url(#paint0_linear_32_78)"/>
<path d="M90.3545 59H87.022L85.9966 54.4956H81.3457L80.3203 59H77L81.4189 41.0801H85.9233L90.3545 59ZM85.374 51.5537L84.4219 47.4033C84.4056 47.3382 84.2835 46.7441 84.0557 45.6211C83.8359 44.4899 83.7098 43.7738 83.6772 43.4727C83.5633 44.2214 83.4331 44.9741 83.2866 45.731C83.1401 46.4878 82.7129 48.4287 82.0049 51.5537H85.374ZM93.1792 41.1533H97.708C101.175 41.1533 102.908 42.9844 102.908 46.6465C102.908 48.5426 102.428 49.9993 101.468 51.0166C100.516 52.0257 99.1362 52.5303 97.3296 52.5303H96.4995V59H93.1792V41.1533ZM96.4995 44.022V49.6494H97.1343C97.9562 49.6494 98.5625 49.4256 98.9531 48.978C99.3519 48.5223 99.5513 47.8102 99.5513 46.8418C99.5513 45.8652 99.3682 45.1532 99.002 44.7056C98.6357 44.2498 98.0701 44.022 97.3052 44.022H96.4995ZM106.392 41.1533H110.921C114.388 41.1533 116.121 42.9844 116.121 46.6465C116.121 48.5426 115.641 49.9993 114.681 51.0166C113.729 52.0257 112.349 52.5303 110.542 52.5303H109.712V59H106.392V41.1533ZM109.712 44.022V49.6494H110.347C111.169 49.6494 111.775 49.4256 112.166 48.978C112.565 48.5223 112.764 47.8102 112.764 46.8418C112.764 45.8652 112.581 45.1532 112.215 44.7056C111.849 44.2498 111.283 44.022 110.518 44.022H109.712ZM122.925 56.0947H127.527V59H119.605V41.1533H122.925V56.0947ZM136.834 59H133.562V51.981L129.339 41.1533H132.842L135.21 48.1968L137.591 41.1533H141.07L136.834 51.8467V59ZM163.833 59H159.781L154.263 46.0728H154.104C154.308 47.0412 154.41 48.0991 154.41 49.2466V59H151.333V41.1533H155.411L160.879 53.9463H161.014C160.859 53.1162 160.782 52.099 160.782 50.8945V41.1533H163.833V59ZM169.344 56.876C168.237 55.2972 167.684 53.0226 167.684 50.0522C167.684 47.0819 168.237 44.8114 169.344 43.2407C170.459 41.6619 172.05 40.8726 174.117 40.8726C176.184 40.8726 177.767 41.666 178.865 43.2529C179.964 44.8317 180.513 47.1022 180.513 50.0645C180.513 53.0186 179.956 55.2891 178.841 56.876C177.734 58.4548 176.151 59.2441 174.092 59.2441C172.042 59.2441 170.459 58.4548 169.344 56.876ZM174.129 43.8022C173.128 43.8022 172.367 44.3312 171.846 45.3892C171.333 46.4471 171.077 47.9974 171.077 50.04C171.077 52.0827 171.333 53.637 171.846 54.7031C172.359 55.7692 173.112 56.3022 174.104 56.3022C176.106 56.3022 177.107 54.2189 177.107 50.0522C177.107 45.8856 176.115 43.8022 174.129 43.8022ZM199.17 59H195.02L193.274 49.6494C192.998 48.3392 192.806 46.8296 192.701 45.1206L192.603 46.0239L192.103 49.6982L190.406 59H186.255L183.021 41.1533H186.28L187.879 51.2241C188.042 52.2658 188.249 53.8486 188.501 55.9727C188.713 53.7184 188.904 52.16 189.075 51.2974L190.979 41.1533H194.422L196.326 51.2974C196.57 52.7378 196.77 54.3044 196.924 55.9971C197.209 53.5638 197.417 51.9728 197.547 51.2241L199.097 41.1533H202.381L199.17 59Z" fill="white"/>
<defs>
<linearGradient id="paint0_linear_32_78" x1="280" y1="41" x2="-7.25335e-06" y2="49" gradientUnits="userSpaceOnUse">
<stop stop-color="#FA14FF"/>
<stop offset="1" stop-color="#0AA7FF"/>
</linearGradient>
</defs>
</svg>
