<svg width="109" height="40" viewBox="0 0 109 40" fill="none" xmlns="http://www.w3.org/2000/svg">
<rect width="109" height="40" rx="3" fill="#0D71EB"/>
<path d="M22.9082 15.29C24.2882 15.29 25.2932 15.59 25.9232 16.19C26.5632 16.78 26.8832 17.595 26.8832 18.635C26.8832 19.105 26.8132 19.555 26.6732 19.985C26.5332 20.405 26.2982 20.785 25.9682 21.125C25.6482 21.455 25.2232 21.715 24.6932 21.905C24.1632 22.095 23.5082 22.19 22.7282 22.19H21.7532V26H19.4882V15.29H22.9082ZM22.7882 17.15H21.7532V20.33H22.5032C22.9332 20.33 23.3032 20.275 23.6132 20.165C23.9232 20.055 24.1632 19.88 24.3332 19.64C24.5032 19.4 24.5882 19.09 24.5882 18.71C24.5882 18.18 24.4432 17.79 24.1532 17.54C23.8632 17.28 23.4082 17.15 22.7882 17.15ZM28.9071 26V15.29H31.1721V24.125H35.5221V26H28.9071ZM43.9436 26L43.1636 23.45H39.2636L38.4836 26H36.0386L39.8186 15.245H42.5936L46.3886 26H43.9436ZM41.8436 19.055C41.7936 18.885 41.7286 18.67 41.6486 18.41C41.5686 18.15 41.4886 17.885 41.4086 17.615C41.3286 17.345 41.2636 17.11 41.2136 16.91C41.1636 17.11 41.0936 17.36 41.0036 17.66C40.9236 17.95 40.8436 18.23 40.7636 18.5C40.6936 18.76 40.6386 18.945 40.5986 19.055L39.8336 21.545H42.6236L41.8436 19.055ZM50.1815 19.7L52.4165 15.29H54.8615L51.3065 21.83V26H49.0565V21.905L45.5015 15.29H47.9615L50.1815 19.7Z" fill="white"/>
<circle cx="81.5" cy="19.5" r="12.5" fill="white" fill-opacity="0.4"/>
<path d="M87 20L78 25.1962V14.8038L87 20Z" fill="white"/>
</svg>
