<svg width="40" height="41" viewBox="0 0 40 41" fill="none" xmlns="http://www.w3.org/2000/svg">
<rect y="1" width="40" height="40" rx="5" fill="#4B5867"/>
<path d="M24.96 17.96H20.91V32H18.27V17.96H15.45V16.73L18.27 15.83V14.9C18.27 13.52 18.47 12.4 18.87 11.54C19.29 10.68 19.89 10.05 20.67 9.65C21.45 9.25 22.39 9.05 23.49 9.05C24.13 9.05 24.71 9.11 25.23 9.23C25.77 9.33 26.23 9.45 26.61 9.59L25.92 11.66C25.6 11.56 25.23 11.46 24.81 11.36C24.39 11.26 23.96 11.21 23.52 11.21C22.64 11.21 21.98 11.51 21.54 12.11C21.12 12.69 20.91 13.61 20.91 14.87V15.92H24.96V17.96Z" fill="white"/>
<path d="M24.96 17.96V18.96H25.96V17.96H24.96ZM20.91 17.96V16.96H19.91V17.96H20.91ZM20.91 32V33H21.91V32H20.91ZM18.27 32H17.27V33H18.27V32ZM18.27 17.96H19.27V16.96H18.27V17.96ZM15.45 17.96H14.45V18.96H15.45V17.96ZM15.45 16.73L15.146 15.7773L14.45 15.9995V16.73H15.45ZM18.27 15.83L18.574 16.7827L19.27 16.5605V15.83H18.27ZM18.87 11.54L17.9714 11.1012L17.9673 11.1097L17.9633 11.1183L18.87 11.54ZM20.67 9.65L20.2137 8.76018L20.2137 8.76018L20.67 9.65ZM25.23 9.23L25.0051 10.2044L25.0264 10.2093L25.0479 10.2133L25.23 9.23ZM26.61 9.59L27.5587 9.90623L27.8652 8.98673L26.9557 8.65166L26.61 9.59ZM25.92 11.66L25.6217 12.6145L26.5584 12.9072L26.8687 11.9762L25.92 11.66ZM21.54 12.11L20.7336 11.5186L20.7301 11.5235L21.54 12.11ZM20.91 15.92H19.91V16.92H20.91V15.92ZM24.96 15.92H25.96V14.92H24.96V15.92ZM24.96 16.96H20.91V18.96H24.96V16.96ZM19.91 17.96V32H21.91V17.96H19.91ZM20.91 31H18.27V33H20.91V31ZM19.27 32V17.96H17.27V32H19.27ZM18.27 16.96H15.45V18.96H18.27V16.96ZM16.45 17.96V16.73H14.45V17.96H16.45ZM15.754 17.6827L18.574 16.7827L17.966 14.8773L15.146 15.7773L15.754 17.6827ZM19.27 15.83V14.9H17.27V15.83H19.27ZM19.27 14.9C19.27 13.6046 19.4596 12.6436 19.7767 11.9617L17.9633 11.1183C17.4804 12.1564 17.27 13.4354 17.27 14.9H19.27ZM19.7686 11.9788C20.103 11.2941 20.5565 10.8321 21.1263 10.5398L20.2137 8.76018C19.2235 9.26794 18.477 10.0659 17.9714 11.1012L19.7686 11.9788ZM21.1263 10.5398C21.7337 10.2283 22.5092 10.05 23.49 10.05V8.05C22.2708 8.05 21.1663 8.27166 20.2137 8.76018L21.1263 10.5398ZM23.49 10.05C24.0688 10.05 24.5718 10.1044 25.0051 10.2044L25.4549 8.25561C24.8482 8.11562 24.1912 8.05 23.49 8.05V10.05ZM25.0479 10.2133C25.5504 10.3063 25.9524 10.4134 26.2643 10.5283L26.9557 8.65166C26.5076 8.48657 25.9896 8.35366 25.4121 8.24672L25.0479 10.2133ZM25.6613 9.27377L24.9713 11.3438L26.8687 11.9762L27.5587 9.90623L25.6613 9.27377ZM26.2183 10.7055C25.8711 10.597 25.478 10.4911 25.0416 10.3872L24.5784 12.3328C24.982 12.4289 25.3289 12.523 25.6217 12.6145L26.2183 10.7055ZM25.0416 10.3872C24.5443 10.2688 24.0365 10.21 23.52 10.21V12.21C23.8835 12.21 24.2357 12.2512 24.5784 12.3328L25.0416 10.3872ZM23.52 10.21C22.3875 10.21 21.3979 10.6128 20.7336 11.5186L22.3464 12.7014C22.5621 12.4072 22.8925 12.21 23.52 12.21V10.21ZM20.7301 11.5235C20.1235 12.3611 19.91 13.541 19.91 14.87H21.91C21.91 13.679 22.1165 13.0189 22.3499 12.6965L20.7301 11.5235ZM19.91 14.87V15.92H21.91V14.87H19.91ZM20.91 16.92H24.96V14.92H20.91V16.92ZM23.96 15.92V17.96H25.96V15.92H23.96Z" fill="white"/>
</svg>
