<svg width="40" height="40" viewBox="0 0 40 40" fill="none" xmlns="http://www.w3.org/2000/svg">
<rect width="40" height="40" rx="5" fill="#4B5867"/>
<path d="M13.54 16.08V27H10.56V16.08H13.54ZM12.06 11.8C12.5 11.8 12.88 11.9067 13.2 12.12C13.52 12.32 13.68 12.7 13.68 13.26C13.68 13.8067 13.52 14.1867 13.2 14.4C12.88 14.6133 12.5 14.72 12.06 14.72C11.6067 14.72 11.22 14.6133 10.9 14.4C10.5933 14.1867 10.44 13.8067 10.44 13.26C10.44 12.7 10.5933 12.32 10.9 12.12C11.22 11.9067 11.6067 11.8 12.06 11.8ZM22.8538 15.88C24.0271 15.88 24.9671 16.2 25.6738 16.84C26.3804 17.4667 26.7338 18.48 26.7338 19.88V27H23.7538V20.62C23.7538 19.8333 23.6138 19.2467 23.3338 18.86C23.0538 18.46 22.6071 18.26 21.9938 18.26C21.0871 18.26 20.4671 18.5733 20.1338 19.2C19.8004 19.8133 19.6338 20.7 19.6338 21.86V27H16.6538V16.08H18.9338L19.3338 17.48H19.4938C19.7338 17.1067 20.0271 16.8067 20.3737 16.58C20.7204 16.34 21.1071 16.1667 21.5338 16.06C21.9604 15.94 22.4004 15.88 22.8538 15.88Z" fill="white"/>
</svg>
