<svg width="255" height="50" viewBox="0 0 255 50" fill="none" xmlns="http://www.w3.org/2000/svg">
<rect width="255" height="50" rx="8" fill="url(#paint0_linear_28_179)"/>
<path d="M75.6386 30V17.148H78.3566V27.75H83.5766V30H75.6386ZM97.1287 23.556C97.1287 24.552 97.0027 25.458 96.7507 26.274C96.5107 27.078 96.1387 27.774 95.6347 28.362C95.1427 28.95 94.5067 29.4 93.7267 29.712C92.9587 30.024 92.0527 30.18 91.0087 30.18C89.9647 30.18 89.0527 30.024 88.2727 29.712C87.5047 29.388 86.8687 28.938 86.3647 28.362C85.8727 27.774 85.5007 27.072 85.2487 26.256C85.0087 25.44 84.8887 24.534 84.8887 23.538C84.8887 22.206 85.1047 21.048 85.5367 20.064C85.9807 19.08 86.6527 18.318 87.5527 17.778C88.4647 17.226 89.6227 16.95 91.0267 16.95C92.4187 16.95 93.5647 17.226 94.4647 17.778C95.3647 18.318 96.0307 19.086 96.4627 20.082C96.9067 21.066 97.1287 22.224 97.1287 23.556ZM87.7507 23.556C87.7507 24.456 87.8647 25.23 88.0927 25.878C88.3207 26.526 88.6747 27.024 89.1547 27.372C89.6347 27.72 90.2527 27.894 91.0087 27.894C91.7887 27.894 92.4127 27.72 92.8807 27.372C93.3607 27.024 93.7087 26.526 93.9247 25.878C94.1527 25.23 94.2667 24.456 94.2667 23.556C94.2667 22.2 94.0147 21.138 93.5107 20.37C93.0067 19.602 92.1787 19.218 91.0267 19.218C90.2587 19.218 89.6347 19.392 89.1547 19.74C88.6747 20.088 88.3207 20.586 88.0927 21.234C87.8647 21.882 87.7507 22.656 87.7507 23.556ZM107.305 30L106.369 26.94H101.689L100.753 30H97.8193L102.355 17.094H105.685L110.239 30H107.305ZM104.785 21.666C104.725 21.462 104.647 21.204 104.551 20.892C104.455 20.58 104.359 20.262 104.263 19.938C104.167 19.614 104.089 19.332 104.029 19.092C103.969 19.332 103.885 19.632 103.777 19.992C103.681 20.34 103.585 20.676 103.489 21C103.405 21.312 103.339 21.534 103.291 21.666L102.373 24.654H105.721L104.785 21.666ZM122.523 23.448C122.523 24.888 122.247 26.094 121.695 27.066C121.143 28.038 120.339 28.77 119.283 29.262C118.239 29.754 116.979 30 115.503 30H111.867V17.148H115.899C117.243 17.148 118.407 17.388 119.391 17.868C120.387 18.348 121.155 19.056 121.695 19.992C122.247 20.916 122.523 22.068 122.523 23.448ZM119.697 23.52C119.697 22.572 119.559 21.792 119.283 21.18C119.007 20.568 118.593 20.118 118.041 19.83C117.501 19.53 116.835 19.38 116.043 19.38H114.585V27.75H115.755C117.087 27.75 118.077 27.396 118.725 26.688C119.373 25.98 119.697 24.924 119.697 23.52ZM134.776 30L131.68 19.92H131.608C131.62 20.16 131.638 20.52 131.662 21C131.686 21.48 131.71 21.996 131.734 22.548C131.758 23.088 131.77 23.58 131.77 24.024V30H129.34V17.148H133.048L136.09 26.976H136.144L139.366 17.148H143.074V30H140.536V23.916C140.536 23.508 140.542 23.04 140.554 22.512C140.578 21.984 140.596 21.486 140.608 21.018C140.632 20.538 140.65 20.178 140.662 19.938H140.59L137.278 30H134.776ZM157.984 23.556C157.984 24.552 157.858 25.458 157.606 26.274C157.366 27.078 156.994 27.774 156.49 28.362C155.998 28.95 155.362 29.4 154.582 29.712C153.814 30.024 152.908 30.18 151.864 30.18C150.82 30.18 149.908 30.024 149.128 29.712C148.36 29.388 147.724 28.938 147.22 28.362C146.728 27.774 146.356 27.072 146.104 26.256C145.864 25.44 145.744 24.534 145.744 23.538C145.744 22.206 145.96 21.048 146.392 20.064C146.836 19.08 147.508 18.318 148.408 17.778C149.32 17.226 150.478 16.95 151.882 16.95C153.274 16.95 154.42 17.226 155.32 17.778C156.22 18.318 156.886 19.086 157.318 20.082C157.762 21.066 157.984 22.224 157.984 23.556ZM148.606 23.556C148.606 24.456 148.72 25.23 148.948 25.878C149.176 26.526 149.53 27.024 150.01 27.372C150.49 27.72 151.108 27.894 151.864 27.894C152.644 27.894 153.268 27.72 153.736 27.372C154.216 27.024 154.564 26.526 154.78 25.878C155.008 25.23 155.122 24.456 155.122 23.556C155.122 22.2 154.87 21.138 154.366 20.37C153.862 19.602 153.034 19.218 151.882 19.218C151.114 19.218 150.49 19.392 150.01 19.74C149.53 20.088 149.176 20.586 148.948 21.234C148.72 21.882 148.606 22.656 148.606 23.556ZM164.39 17.148C165.554 17.148 166.514 17.292 167.27 17.58C168.026 17.856 168.59 18.282 168.962 18.858C169.334 19.422 169.52 20.136 169.52 21C169.52 21.588 169.406 22.104 169.178 22.548C168.962 22.98 168.668 23.352 168.296 23.664C167.936 23.964 167.546 24.21 167.126 24.402L170.906 30H167.882L164.822 25.068H163.364V30H160.646V17.148H164.39ZM164.192 19.38H163.364V22.854H164.246C164.846 22.854 165.332 22.788 165.704 22.656C166.076 22.524 166.346 22.326 166.514 22.062C166.682 21.786 166.766 21.456 166.766 21.072C166.766 20.664 166.67 20.34 166.478 20.1C166.298 19.848 166.016 19.668 165.632 19.56C165.26 19.44 164.78 19.38 164.192 19.38ZM179.927 30H172.529V17.148H179.927V19.38H175.247V22.206H179.603V24.438H175.247V27.75H179.927V30Z" fill="white"/>
<defs>
<linearGradient id="paint0_linear_28_179" x1="-7.5" y1="32.5" x2="265" y2="50" gradientUnits="userSpaceOnUse">
<stop stop-color="#FA14FF"/>
<stop offset="0.845" stop-color="#0D71EB"/>
</linearGradient>
</defs>
</svg>
