<svg width="40" height="40" viewBox="0 0 40 40" fill="none" xmlns="http://www.w3.org/2000/svg">
<circle cx="20" cy="20" r="20" fill="#9B2DCF" fill-opacity="0.62"/>
<path d="M17.378 26L16.65 23.62H13.01L12.282 26H10L13.528 15.962H16.118L19.66 26H17.378ZM15.418 19.518C15.3713 19.3593 15.3107 19.1587 15.236 18.916C15.1613 18.6733 15.0867 18.426 15.012 18.174C14.9373 17.922 14.8767 17.7027 14.83 17.516C14.7833 17.7027 14.718 17.936 14.634 18.216C14.5593 18.4867 14.4847 18.748 14.41 19C14.3447 19.2427 14.2933 19.4153 14.256 19.518L13.542 21.842H16.146L15.418 19.518ZM22.844 26H20.758V15.36H22.844V26ZM27.1096 26H25.0236V15.36H27.1096V26Z" fill="white"/>
</svg>
