<svg width="181" height="108" viewBox="0 0 181 108" fill="none" xmlns="http://www.w3.org/2000/svg">
<path d="M39.7 29.4C39.7 25.2667 40.3333 21.5 41.6 18.1C42.8667 14.6333 44.7667 11.8667 47.3 9.8C49.8333 7.66667 53.0333 6.6 56.9 6.6C59.7667 6.6 62.3 7.16667 64.5 8.3C66.6333 9.43333 68.5 10.9667 70.1 12.9C71.7 14.7667 73.1 16.9333 74.3 19.4C75.6333 16.8667 77.2 14.4667 79 12.2C80.7333 9.86666 82.8 8 85.2 6.6C87.5333 5.13333 90.3 4.4 93.5 4.4C97.4333 4.4 100.867 5.46667 103.8 7.6C106.733 9.66667 109 12.6 110.6 16.4C112.2 20.1333 113 24.4667 113 29.4C113 34.7333 112.233 39.2667 110.7 43C109.167 46.7333 106.967 49.6 104.1 51.6C101.233 53.5333 97.8333 54.5 93.9 54.5C90.6333 54.5 87.8 53.9 85.4 52.7C83 51.4333 80.9333 49.7667 79.2 47.7C77.4 45.6333 75.9 43.3333 74.7 40.8C73.3667 42.9333 71.8667 44.8667 70.2 46.6C68.4667 48.3333 66.5333 49.7333 64.4 50.8C62.2 51.8 59.6667 52.3 56.8 52.3C53 52.3 49.8333 51.2333 47.3 49.1C44.7667 46.9667 42.8667 44.1667 41.6 40.7C40.3333 37.1667 39.7 33.4 39.7 29.4ZM93 40.5C95.6 40.5 97.7333 39.6 99.4 37.8C101.067 35.9333 101.9 33.2 101.9 29.6C101.9 27.0667 101.533 25 100.8 23.4C100.067 21.7333 99.0333 20.5 97.7 19.7C96.3667 18.8333 94.8333 18.4 93.1 18.4C91.3 18.4 89.7333 18.9333 88.4 20C87 21.0667 85.7667 22.4 84.7 24C83.5667 25.5333 82.5333 27.1333 81.6 28.8L80.9 30.1C81.8333 32.1667 82.9 34 84.1 35.6C85.3 37.1333 86.6333 38.3333 88.1 39.2C89.5 40.0667 91.1333 40.5 93 40.5ZM50.7 29.5C50.7 31.9667 51.3333 34.0333 52.6 35.7C53.8667 37.3 55.6667 38.1 58 38.1C59.6 38.1 61.0333 37.7 62.3 36.9C63.5 36.1 64.5667 35.0333 65.5 33.7C66.3667 32.3667 67.2 30.9333 68 29.4C67.2667 27.8667 66.4667 26.4667 65.6 25.2C64.7333 23.8667 63.7 22.8 62.5 22C61.2333 21.2 59.7333 20.8 58 20.8C55.6667 20.8 53.8667 21.6333 52.6 23.3C51.3333 24.9 50.7 26.9667 50.7 29.5Z" fill="white"/>
<path d="M14.31 62.87C18.45 62.87 21.465 63.77 23.355 65.57C25.275 67.34 26.235 69.785 26.235 72.905C26.235 74.315 26.025 75.665 25.605 76.955C25.185 78.215 24.48 79.355 23.49 80.375C22.53 81.365 21.255 82.145 19.665 82.715C18.075 83.285 16.11 83.57 13.77 83.57H10.845V95H4.05V62.87H14.31ZM13.95 68.45H10.845V77.99H13.095C14.385 77.99 15.495 77.825 16.425 77.495C17.355 77.165 18.075 76.64 18.585 75.92C19.095 75.2 19.35 74.27 19.35 73.13C19.35 71.54 18.915 70.37 18.045 69.62C17.175 68.84 15.81 68.45 13.95 68.45ZM38.4718 95H31.7668V60.8H38.4718V95ZM55.5578 69.935C58.8578 69.935 61.3778 70.655 63.1178 72.095C64.8878 73.505 65.7728 75.68 65.7728 78.62V95H61.0928L59.7878 91.67H59.6078C58.9178 92.54 58.1978 93.26 57.4478 93.83C56.7278 94.4 55.8878 94.805 54.9278 95.045C53.9978 95.315 52.8428 95.45 51.4628 95.45C50.0228 95.45 48.7178 95.18 47.5478 94.64C46.4078 94.07 45.5078 93.215 44.8478 92.075C44.1878 90.905 43.8578 89.435 43.8578 87.665C43.8578 85.055 44.7728 83.135 46.6028 81.905C48.4328 80.645 51.1778 79.955 54.8378 79.835L59.1128 79.7V78.62C59.1128 77.33 58.7678 76.385 58.0778 75.785C57.4178 75.185 56.4878 74.885 55.2878 74.885C54.0878 74.885 52.9178 75.065 51.7778 75.425C50.6378 75.755 49.4978 76.175 48.3578 76.685L46.1528 72.14C47.4728 71.45 48.9278 70.91 50.5178 70.52C52.1378 70.13 53.8178 69.935 55.5578 69.935ZM56.5028 83.705C54.3428 83.765 52.8428 84.155 52.0028 84.875C51.1628 85.595 50.7428 86.54 50.7428 87.71C50.7428 88.73 51.0428 89.465 51.6428 89.915C52.2428 90.335 53.0228 90.545 53.9828 90.545C55.4228 90.545 56.6378 90.125 57.6278 89.285C58.6178 88.415 59.1128 87.2 59.1128 85.64V83.615L56.5028 83.705ZM69.126 70.43H76.461L81.096 84.245C81.246 84.695 81.366 85.145 81.456 85.595C81.576 86.045 81.666 86.51 81.726 86.99C81.816 87.47 81.876 87.98 81.906 88.52H82.041C82.131 87.74 82.251 87.005 82.401 86.315C82.581 85.595 82.776 84.905 82.986 84.245L87.531 70.43H94.731L84.336 98.15C83.706 99.83 82.881 101.24 81.861 102.38C80.871 103.52 79.716 104.375 78.396 104.945C77.076 105.515 75.636 105.8 74.076 105.8C73.326 105.8 72.666 105.755 72.096 105.665C71.556 105.605 71.076 105.53 70.656 105.44V100.13C70.986 100.19 71.376 100.25 71.826 100.31C72.306 100.37 72.801 100.4 73.311 100.4C74.241 100.4 75.036 100.205 75.696 99.815C76.386 99.425 76.956 98.885 77.406 98.195C77.856 97.535 78.216 96.815 78.486 96.035L78.891 94.82L69.126 70.43ZM118.977 90.095C119.727 90.095 120.447 90.02 121.137 89.87C121.827 89.72 122.517 89.54 123.207 89.33V94.325C122.487 94.625 121.587 94.88 120.507 95.09C119.457 95.33 118.302 95.45 117.042 95.45C115.572 95.45 114.252 95.21 113.082 94.73C111.942 94.25 111.027 93.425 110.337 92.255C109.677 91.055 109.347 89.405 109.347 87.305V75.47H106.152V72.635L109.842 70.385L111.777 65.21H116.052V70.43H122.937V75.47H116.052V87.305C116.052 88.235 116.322 88.94 116.862 89.42C117.402 89.87 118.107 90.095 118.977 90.095ZM150.459 82.67C150.459 84.71 150.174 86.525 149.604 88.115C149.064 89.705 148.269 91.055 147.219 92.165C146.199 93.245 144.954 94.07 143.484 94.64C142.014 95.18 140.349 95.45 138.489 95.45C136.779 95.45 135.189 95.18 133.719 94.64C132.279 94.07 131.034 93.245 129.984 92.165C128.934 91.055 128.109 89.705 127.509 88.115C126.939 86.525 126.654 84.71 126.654 82.67C126.654 79.94 127.134 77.645 128.094 75.785C129.054 73.895 130.434 72.455 132.234 71.465C134.034 70.475 136.164 69.98 138.624 69.98C140.934 69.98 142.974 70.475 144.744 71.465C146.514 72.455 147.909 73.895 148.929 75.785C149.949 77.645 150.459 79.94 150.459 82.67ZM133.494 82.67C133.494 84.29 133.659 85.655 133.989 86.765C134.349 87.845 134.904 88.67 135.654 89.24C136.404 89.78 137.379 90.05 138.579 90.05C139.779 90.05 140.739 89.78 141.459 89.24C142.209 88.67 142.749 87.845 143.079 86.765C143.439 85.655 143.619 84.29 143.619 82.67C143.619 81.05 143.439 79.7 143.079 78.62C142.749 77.54 142.209 76.73 141.459 76.19C140.709 75.65 139.734 75.38 138.534 75.38C136.764 75.38 135.474 75.995 134.664 77.225C133.884 78.425 133.494 80.24 133.494 82.67ZM178.32 82.67C178.32 84.71 178.035 86.525 177.465 88.115C176.925 89.705 176.13 91.055 175.08 92.165C174.06 93.245 172.815 94.07 171.345 94.64C169.875 95.18 168.21 95.45 166.35 95.45C164.64 95.45 163.05 95.18 161.58 94.64C160.14 94.07 158.895 93.245 157.845 92.165C156.795 91.055 155.97 89.705 155.37 88.115C154.8 86.525 154.515 84.71 154.515 82.67C154.515 79.94 154.995 77.645 155.955 75.785C156.915 73.895 158.295 72.455 160.095 71.465C161.895 70.475 164.025 69.98 166.485 69.98C168.795 69.98 170.835 70.475 172.605 71.465C174.375 72.455 175.77 73.895 176.79 75.785C177.81 77.645 178.32 79.94 178.32 82.67ZM161.355 82.67C161.355 84.29 161.52 85.655 161.85 86.765C162.21 87.845 162.765 88.67 163.515 89.24C164.265 89.78 165.24 90.05 166.44 90.05C167.64 90.05 168.6 89.78 169.32 89.24C170.07 88.67 170.61 87.845 170.94 86.765C171.3 85.655 171.48 84.29 171.48 82.67C171.48 81.05 171.3 79.7 170.94 78.62C170.61 77.54 170.07 76.73 169.32 76.19C168.57 75.65 167.595 75.38 166.395 75.38C164.625 75.38 163.335 75.995 162.525 77.225C161.745 78.425 161.355 80.24 161.355 82.67Z" fill="white"/>
</svg>
