<svg width="13" height="21" viewBox="0 0 13 21" fill="none" xmlns="http://www.w3.org/2000/svg">
<path d="M5.325 18C4.24167 17.9667 3.275 17.8667 2.425 17.7C1.575 17.5167 0.8 17.2667 0.1 16.95V13.725C0.783333 14.0583 1.60833 14.3667 2.575 14.65C3.54167 14.9167 4.45833 15.075 5.325 15.125V11.35C4.35833 10.9667 3.53333 10.6 2.85 10.25C2.18333 9.9 1.64167 9.53333 1.225 9.15C0.825 8.75 0.533333 8.31667 0.35 7.85C0.166667 7.36667 0.075 6.81667 0.075 6.2C0.075 5.36667 0.291667 4.65 0.725 4.05C1.175 3.43333 1.79167 2.94167 2.575 2.575C3.375 2.20833 4.29167 1.98333 5.325 1.9V0.0249984H7V1.85C7.93333 1.88333 8.80833 1.99167 9.625 2.175C10.4583 2.35833 11.2667 2.625 12.05 2.975L10.9 5.825C10.2333 5.54167 9.55833 5.325 8.875 5.175C8.20833 5.025 7.58333 4.925 7 4.875V8.475C7.9 8.80833 8.75833 9.175 9.575 9.575C10.3917 9.95833 11.05 10.45 11.55 11.05C12.0667 11.65 12.325 12.4417 12.325 13.425C12.325 14.6417 11.8833 15.6583 11 16.475C10.1167 17.2917 8.78333 17.7833 7 17.95V20.45H5.325V18ZM7 15.05C7.56667 14.95 7.98333 14.7833 8.25 14.55C8.51667 14.3 8.65 13.9833 8.65 13.6C8.65 13.3667 8.58333 13.1667 8.45 13C8.33333 12.8167 8.15 12.65 7.9 12.5C7.66667 12.3333 7.36667 12.1667 7 12V15.05ZM5.325 4.925C4.99167 4.975 4.70833 5.05833 4.475 5.175C4.24167 5.275 4.05833 5.41667 3.925 5.6C3.80833 5.76667 3.75 5.96667 3.75 6.2C3.75 6.43333 3.8 6.64167 3.9 6.825C4.01667 6.99167 4.19167 7.15833 4.425 7.325C4.65833 7.475 4.95833 7.63333 5.325 7.8V4.925Z" fill="#F9C612"/>
</svg>
