<svg width="314" height="91" viewBox="0 0 314 91" fill="none" xmlns="http://www.w3.org/2000/svg">
<path fill-rule="evenodd" clip-rule="evenodd" d="M0 5C0 2.23858 2.23858 0 5 0H42C44.7614 0 47 2.23857 47 4.99999V21.1134C47 23.387 45.2451 25.2071 43.7018 26.8766C42.8925 27.7522 42.4146 28.8319 42.4146 30C42.4146 31.1681 42.8925 32.2478 43.7018 33.1234C45.2451 34.7929 47 36.613 47 38.8866V55C47 57.7614 44.7614 60 42 60H5C2.23858 60 0 57.7614 0 55V39.7062C0 37.1625 2.14536 35.2075 4.04472 33.5154C5.09422 32.5805 5.73171 31.3492 5.73171 30C5.73171 28.6508 5.09423 27.4195 4.04472 26.4845C2.14536 24.7925 0 22.8375 0 20.2938V5Z" fill="#303749" fill-opacity="0.78"/>
<path fill-rule="evenodd" clip-rule="evenodd" d="M50 5C50 2.23858 52.2386 0 55 0H92C94.7614 0 97 2.23857 97 4.99999V21.1134C97 23.387 95.2451 25.2071 93.7018 26.8766C92.8925 27.7522 92.4146 28.8319 92.4146 30C92.4146 31.1681 92.8925 32.2478 93.7018 33.1234C95.2451 34.7929 97 36.613 97 38.8866V55C97 57.7614 94.7614 60 92 60H55C52.2386 60 50 57.7614 50 55V39.7062C50 37.1625 52.1454 35.2075 54.0447 33.5154C55.0942 32.5805 55.7317 31.3492 55.7317 30C55.7317 28.6508 55.0942 27.4195 54.0447 26.4845C52.1454 24.7925 50 22.8375 50 20.2938V5Z" fill="#303749" fill-opacity="0.78"/>
<path fill-rule="evenodd" clip-rule="evenodd" d="M109 5C109 2.23858 111.239 0 114 0H151C153.761 0 156 2.23857 156 4.99999V21.1134C156 23.387 154.245 25.2071 152.702 26.8766C151.892 27.7522 151.415 28.8319 151.415 30C151.415 31.1681 151.892 32.2478 152.702 33.1234C154.245 34.7929 156 36.613 156 38.8866V55C156 57.7614 153.761 60 151 60H114C111.239 60 109 57.7614 109 55V39.7062C109 37.1625 111.145 35.2075 113.045 33.5154C114.094 32.5805 114.732 31.3492 114.732 30C114.732 28.6508 114.094 27.4195 113.045 26.4845C111.145 24.7925 109 22.8375 109 20.2938V5Z" fill="#303749" fill-opacity="0.78"/>
<path fill-rule="evenodd" clip-rule="evenodd" d="M159 5C159 2.23858 161.239 0 164 0H201C203.761 0 206 2.23857 206 4.99999V21.1134C206 23.387 204.245 25.2071 202.702 26.8766C201.892 27.7522 201.415 28.8319 201.415 30C201.415 31.1681 201.892 32.2478 202.702 33.1234C204.245 34.7929 206 36.613 206 38.8866V55C206 57.7614 203.761 60 201 60H164C161.239 60 159 57.7614 159 55V39.7062C159 37.1625 161.145 35.2075 163.045 33.5154C164.094 32.5805 164.732 31.3492 164.732 30C164.732 28.6508 164.094 27.4195 163.045 26.4845C161.145 24.7925 159 22.8375 159 20.2938V5Z" fill="#303749" fill-opacity="0.78"/>
<path fill-rule="evenodd" clip-rule="evenodd" d="M216 5C216 2.23858 218.239 0 221 0H258C260.761 0 263 2.23857 263 4.99999V21.1134C263 23.387 261.245 25.2071 259.702 26.8766C258.892 27.7522 258.415 28.8319 258.415 30C258.415 31.1681 258.892 32.2478 259.702 33.1234C261.245 34.7929 263 36.613 263 38.8866V55C263 57.7614 260.761 60 258 60H221C218.239 60 216 57.7614 216 55V39.7062C216 37.1625 218.145 35.2075 220.045 33.5154C221.094 32.5805 221.732 31.3492 221.732 30C221.732 28.6508 221.094 27.4195 220.045 26.4845C218.145 24.7925 216 22.8375 216 20.2938V5Z" fill="#303749" fill-opacity="0.78"/>
<path fill-rule="evenodd" clip-rule="evenodd" d="M267 5C267 2.23858 269.239 0 272 0H309C311.761 0 314 2.23857 314 4.99999V21.1134C314 23.387 312.245 25.2071 310.702 26.8766C309.892 27.7522 309.415 28.8319 309.415 30C309.415 31.1681 309.892 32.2478 310.702 33.1234C312.245 34.7929 314 36.613 314 38.8866V55C314 57.7614 311.761 60 309 60H272C269.239 60 267 57.7614 267 55V39.7062C267 37.1625 269.145 35.2075 271.045 33.5154C272.094 32.5805 272.732 31.3492 272.732 30C272.732 28.6508 272.094 27.4195 271.045 26.4845C269.145 24.7925 267 22.8375 267 20.2938V5Z" fill="#303749" fill-opacity="0.78"/>
<path d="M30.7695 29.4609V33.167C30.7695 34.7686 30.6182 36.1455 30.3154 37.2979C30.0127 38.4502 29.5879 39.3975 29.041 40.1396C28.4941 40.8721 27.8447 41.4141 27.0928 41.7656C26.3408 42.1172 25.5107 42.293 24.6025 42.293C23.8799 42.293 23.2012 42.1807 22.5664 41.9561C21.9316 41.7314 21.3555 41.3896 20.8379 40.9307C20.3301 40.4619 19.8906 39.8711 19.5195 39.1582C19.1582 38.4355 18.8799 37.5811 18.6846 36.5947C18.4893 35.5986 18.3916 34.4561 18.3916 33.167V29.4609C18.3916 27.8594 18.543 26.4873 18.8457 25.3447C19.1582 24.1924 19.5879 23.25 20.1348 22.5176C20.6816 21.7852 21.3311 21.248 22.083 20.9062C22.8447 20.5547 23.6797 20.3789 24.5879 20.3789C25.3008 20.3789 25.9746 20.4912 26.6094 20.7158C27.2539 20.9307 27.8252 21.2676 28.3232 21.7266C28.8311 22.1855 29.2656 22.7764 29.627 23.499C29.998 24.2119 30.2812 25.0664 30.4766 26.0625C30.6719 27.0488 30.7695 28.1816 30.7695 29.4609ZM26.6533 33.7383V28.8604C26.6533 28.1084 26.6191 27.4492 26.5508 26.8828C26.4922 26.3164 26.4092 25.8379 26.3018 25.4473C26.1943 25.0566 26.0527 24.7393 25.877 24.4951C25.7012 24.251 25.5059 24.0752 25.291 23.9678C25.0762 23.8506 24.8369 23.792 24.5732 23.792C24.2607 23.792 23.9775 23.8799 23.7236 24.0557C23.4697 24.2314 23.25 24.5195 23.0645 24.9199C22.8789 25.3105 22.7373 25.833 22.6396 26.4873C22.5518 27.1318 22.5078 27.9229 22.5078 28.8604V33.7383C22.5078 34.4902 22.5371 35.1543 22.5957 35.7305C22.6641 36.3066 22.7568 36.7998 22.874 37.21C23.001 37.6104 23.1426 37.9326 23.2988 38.1768C23.4648 38.4209 23.6553 38.6016 23.8701 38.7188C24.0947 38.8262 24.3389 38.8799 24.6025 38.8799C24.915 38.8799 25.1982 38.792 25.4521 38.6162C25.7158 38.4307 25.9355 38.1377 26.1113 37.7373C26.2871 37.3369 26.4189 36.8096 26.5068 36.1553C26.6045 35.4912 26.6533 34.6855 26.6533 33.7383Z" fill="white"/>
<path d="M79.96 38.5869V42H67.3916V39.085L73.1631 31.7461C73.7197 30.9746 74.1543 30.3008 74.4668 29.7246C74.7793 29.1387 75.0039 28.6162 75.1406 28.1572C75.2773 27.6885 75.3457 27.249 75.3457 26.8389C75.3457 26.2041 75.2725 25.6621 75.126 25.2129C74.9795 24.7539 74.7598 24.4023 74.4668 24.1582C74.1836 23.9043 73.832 23.7773 73.4121 23.7773C72.9043 23.7773 72.4844 23.9336 72.1523 24.2461C71.8203 24.5586 71.5713 24.9883 71.4053 25.5352C71.249 26.0723 71.1709 26.6826 71.1709 27.3662H67.0547C67.0547 26.0869 67.3135 24.915 67.8311 23.8506C68.3584 22.7861 69.0957 21.9414 70.043 21.3164C71 20.6816 72.1475 20.3643 73.4854 20.3643C74.7939 20.3643 75.8877 20.6084 76.7666 21.0967C77.6553 21.585 78.3242 22.2832 78.7734 23.1914C79.2324 24.0898 79.4619 25.1641 79.4619 26.4141C79.4619 27.127 79.3691 27.8203 79.1836 28.4941C78.998 29.1582 78.7344 29.8223 78.3926 30.4863C78.0508 31.1406 77.6309 31.8096 77.1328 32.4932C76.6348 33.1768 76.0732 33.8848 75.4482 34.6172L72.665 38.5869H79.96Z" fill="white"/>
<path d="M140.77 29.4609V33.167C140.77 34.7686 140.618 36.1455 140.315 37.2979C140.013 38.4502 139.588 39.3975 139.041 40.1396C138.494 40.8721 137.845 41.4141 137.093 41.7656C136.341 42.1172 135.511 42.293 134.603 42.293C133.88 42.293 133.201 42.1807 132.566 41.9561C131.932 41.7314 131.355 41.3896 130.838 40.9307C130.33 40.4619 129.891 39.8711 129.52 39.1582C129.158 38.4355 128.88 37.5811 128.685 36.5947C128.489 35.5986 128.392 34.4561 128.392 33.167V29.4609C128.392 27.8594 128.543 26.4873 128.846 25.3447C129.158 24.1924 129.588 23.25 130.135 22.5176C130.682 21.7852 131.331 21.248 132.083 20.9062C132.845 20.5547 133.68 20.3789 134.588 20.3789C135.301 20.3789 135.975 20.4912 136.609 20.7158C137.254 20.9307 137.825 21.2676 138.323 21.7266C138.831 22.1855 139.266 22.7764 139.627 23.499C139.998 24.2119 140.281 25.0664 140.477 26.0625C140.672 27.0488 140.77 28.1816 140.77 29.4609ZM136.653 33.7383V28.8604C136.653 28.1084 136.619 27.4492 136.551 26.8828C136.492 26.3164 136.409 25.8379 136.302 25.4473C136.194 25.0566 136.053 24.7393 135.877 24.4951C135.701 24.251 135.506 24.0752 135.291 23.9678C135.076 23.8506 134.837 23.792 134.573 23.792C134.261 23.792 133.978 23.8799 133.724 24.0557C133.47 24.2314 133.25 24.5195 133.064 24.9199C132.879 25.3105 132.737 25.833 132.64 26.4873C132.552 27.1318 132.508 27.9229 132.508 28.8604V33.7383C132.508 34.4902 132.537 35.1543 132.596 35.7305C132.664 36.3066 132.757 36.7998 132.874 37.21C133.001 37.6104 133.143 37.9326 133.299 38.1768C133.465 38.4209 133.655 38.6016 133.87 38.7188C134.095 38.8262 134.339 38.8799 134.603 38.8799C134.915 38.8799 135.198 38.792 135.452 38.6162C135.716 38.4307 135.936 38.1377 136.111 37.7373C136.287 37.3369 136.419 36.8096 136.507 36.1553C136.604 35.4912 136.653 34.6855 136.653 33.7383Z" fill="white"/>
<path d="M188.96 38.5869V42H176.392V39.085L182.163 31.7461C182.72 30.9746 183.154 30.3008 183.467 29.7246C183.779 29.1387 184.004 28.6162 184.141 28.1572C184.277 27.6885 184.346 27.249 184.346 26.8389C184.346 26.2041 184.272 25.6621 184.126 25.2129C183.979 24.7539 183.76 24.4023 183.467 24.1582C183.184 23.9043 182.832 23.7773 182.412 23.7773C181.904 23.7773 181.484 23.9336 181.152 24.2461C180.82 24.5586 180.571 24.9883 180.405 25.5352C180.249 26.0723 180.171 26.6826 180.171 27.3662H176.055C176.055 26.0869 176.313 24.915 176.831 23.8506C177.358 22.7861 178.096 21.9414 179.043 21.3164C180 20.6816 181.147 20.3643 182.485 20.3643C183.794 20.3643 184.888 20.6084 185.767 21.0967C186.655 21.585 187.324 22.2832 187.773 23.1914C188.232 24.0898 188.462 25.1641 188.462 26.4141C188.462 27.127 188.369 27.8203 188.184 28.4941C187.998 29.1582 187.734 29.8223 187.393 30.4863C187.051 31.1406 186.631 31.8096 186.133 32.4932C185.635 33.1768 185.073 33.8848 184.448 34.6172L181.665 38.5869H188.96Z" fill="white"/>
<path d="M244.77 29.4609V33.167C244.77 34.7686 244.618 36.1455 244.315 37.2979C244.013 38.4502 243.588 39.3975 243.041 40.1396C242.494 40.8721 241.845 41.4141 241.093 41.7656C240.341 42.1172 239.511 42.293 238.603 42.293C237.88 42.293 237.201 42.1807 236.566 41.9561C235.932 41.7314 235.355 41.3896 234.838 40.9307C234.33 40.4619 233.891 39.8711 233.52 39.1582C233.158 38.4355 232.88 37.5811 232.685 36.5947C232.489 35.5986 232.392 34.4561 232.392 33.167V29.4609C232.392 27.8594 232.543 26.4873 232.846 25.3447C233.158 24.1924 233.588 23.25 234.135 22.5176C234.682 21.7852 235.331 21.248 236.083 20.9062C236.845 20.5547 237.68 20.3789 238.588 20.3789C239.301 20.3789 239.975 20.4912 240.609 20.7158C241.254 20.9307 241.825 21.2676 242.323 21.7266C242.831 22.1855 243.266 22.7764 243.627 23.499C243.998 24.2119 244.281 25.0664 244.477 26.0625C244.672 27.0488 244.77 28.1816 244.77 29.4609ZM240.653 33.7383V28.8604C240.653 28.1084 240.619 27.4492 240.551 26.8828C240.492 26.3164 240.409 25.8379 240.302 25.4473C240.194 25.0566 240.053 24.7393 239.877 24.4951C239.701 24.251 239.506 24.0752 239.291 23.9678C239.076 23.8506 238.837 23.792 238.573 23.792C238.261 23.792 237.978 23.8799 237.724 24.0557C237.47 24.2314 237.25 24.5195 237.064 24.9199C236.879 25.3105 236.737 25.833 236.64 26.4873C236.552 27.1318 236.508 27.9229 236.508 28.8604V33.7383C236.508 34.4902 236.537 35.1543 236.596 35.7305C236.664 36.3066 236.757 36.7998 236.874 37.21C237.001 37.6104 237.143 37.9326 237.299 38.1768C237.465 38.4209 237.655 38.6016 237.87 38.7188C238.095 38.8262 238.339 38.8799 238.603 38.8799C238.915 38.8799 239.198 38.792 239.452 38.6162C239.716 38.4307 239.936 38.1377 240.111 37.7373C240.287 37.3369 240.419 36.8096 240.507 36.1553C240.604 35.4912 240.653 34.6855 240.653 33.7383Z" fill="white"/>
<path d="M295.96 38.5869V42H283.392V39.085L289.163 31.7461C289.72 30.9746 290.154 30.3008 290.467 29.7246C290.779 29.1387 291.004 28.6162 291.141 28.1572C291.277 27.6885 291.346 27.249 291.346 26.8389C291.346 26.2041 291.272 25.6621 291.126 25.2129C290.979 24.7539 290.76 24.4023 290.467 24.1582C290.184 23.9043 289.832 23.7773 289.412 23.7773C288.904 23.7773 288.484 23.9336 288.152 24.2461C287.82 24.5586 287.571 24.9883 287.405 25.5352C287.249 26.0723 287.171 26.6826 287.171 27.3662H283.055C283.055 26.0869 283.313 24.915 283.831 23.8506C284.358 22.7861 285.096 21.9414 286.043 21.3164C287 20.6816 288.147 20.3643 289.485 20.3643C290.794 20.3643 291.888 20.6084 292.767 21.0967C293.655 21.585 294.324 22.2832 294.773 23.1914C295.232 24.0898 295.462 25.1641 295.462 26.4141C295.462 27.127 295.369 27.8203 295.184 28.4941C294.998 29.1582 294.734 29.8223 294.393 30.4863C294.051 31.1406 293.631 31.8096 293.133 32.4932C292.635 33.1768 292.073 33.8848 291.448 34.6172L288.665 38.5869H295.96Z" fill="white"/>
<path d="M44.704 80.176C44.704 81.456 44.464 82.528 43.984 83.392C43.5147 84.256 42.8373 84.9067 41.952 85.344C41.0667 85.7813 39.9947 86 38.736 86H35.552V74.576H39.072C40.224 74.576 41.2213 74.7893 42.064 75.216C42.9067 75.6427 43.5573 76.272 44.016 77.104C44.4747 77.9253 44.704 78.9493 44.704 80.176ZM43.184 80.224C43.184 79.2107 43.0133 78.3787 42.672 77.728C42.3413 77.0773 41.8507 76.5973 41.2 76.288C40.56 75.968 39.7813 75.808 38.864 75.808H36.992V84.768H38.544C40.0907 84.768 41.248 84.3893 42.016 83.632C42.7947 82.864 43.184 81.728 43.184 80.224ZM50.2955 77.28C51.3408 77.28 52.1142 77.5093 52.6155 77.968C53.1168 78.4267 53.3675 79.1573 53.3675 80.16V86H52.3435L52.0715 84.784H52.0075C51.7622 85.0933 51.5062 85.3547 51.2395 85.568C50.9835 85.7707 50.6848 85.92 50.3435 86.016C50.0128 86.112 49.6075 86.16 49.1275 86.16C48.6155 86.16 48.1515 86.0693 47.7355 85.888C47.3302 85.7067 47.0102 85.4293 46.7755 85.056C46.5408 84.672 46.4235 84.192 46.4235 83.616C46.4235 82.7627 46.7595 82.1067 47.4315 81.648C48.1035 81.1787 49.1382 80.9227 50.5355 80.88L51.9915 80.832V80.32C51.9915 79.6053 51.8368 79.1093 51.5275 78.832C51.2182 78.5547 50.7808 78.416 50.2155 78.416C49.7675 78.416 49.3408 78.4853 48.9355 78.624C48.5302 78.752 48.1515 78.9013 47.7995 79.072L47.3675 78.016C47.7408 77.8133 48.1835 77.6427 48.6955 77.504C49.2075 77.3547 49.7408 77.28 50.2955 77.28ZM50.7115 81.856C49.6448 81.8987 48.9035 82.0693 48.4875 82.368C48.0822 82.6667 47.8795 83.088 47.8795 83.632C47.8795 84.112 48.0235 84.464 48.3115 84.688C48.6102 84.912 48.9888 85.024 49.4475 85.024C50.1728 85.024 50.7755 84.8267 51.2555 84.432C51.7355 84.0267 51.9755 83.408 51.9755 82.576V81.808L50.7115 81.856ZM54.6723 77.424H56.1763L58.0323 82.304C58.1389 82.592 58.2349 82.8693 58.3203 83.136C58.4163 83.4027 58.5016 83.664 58.5763 83.92C58.6509 84.1653 58.7096 84.4053 58.7523 84.64H58.8163C58.8803 84.3733 58.9816 84.0267 59.1203 83.6C59.2589 83.1627 59.4029 82.7253 59.5523 82.288L61.2963 77.424H62.8163L59.1203 87.184C58.9176 87.7173 58.6776 88.1813 58.4003 88.576C58.1336 88.9813 57.8029 89.2907 57.4083 89.504C57.0243 89.728 56.5549 89.84 56.0003 89.84C55.7443 89.84 55.5203 89.824 55.3283 89.792C55.1363 89.7707 54.9709 89.744 54.8323 89.712V88.592C54.9496 88.6133 55.0883 88.6347 55.2483 88.656C55.4189 88.6773 55.5949 88.688 55.7763 88.688C56.1069 88.688 56.3896 88.624 56.6243 88.496C56.8696 88.3787 57.0776 88.2027 57.2483 87.968C57.4189 87.744 57.5629 87.4773 57.6803 87.168L58.1283 86.032L54.6723 77.424ZM69.7565 83.632C69.7565 84.1867 69.6178 84.6507 69.3405 85.024C69.0632 85.3973 68.6685 85.68 68.1565 85.872C67.6445 86.064 67.0365 86.16 66.3325 86.16C65.7352 86.16 65.2178 86.112 64.7805 86.016C64.3538 85.92 63.9752 85.7867 63.6445 85.616V84.336C63.9858 84.5067 64.3965 84.6667 64.8765 84.816C65.3672 84.9547 65.8632 85.024 66.3645 85.024C67.0792 85.024 67.5965 84.912 67.9165 84.688C68.2365 84.4533 68.3965 84.144 68.3965 83.76C68.3965 83.5467 68.3378 83.3547 68.2205 83.184C68.1032 83.0133 67.8898 82.8427 67.5805 82.672C67.2818 82.5013 66.8498 82.3093 66.2845 82.096C65.7298 81.8827 65.2552 81.6693 64.8605 81.456C64.4658 81.2427 64.1618 80.9867 63.9485 80.688C63.7352 80.3893 63.6285 80.0053 63.6285 79.536C63.6285 78.8107 63.9218 78.2507 64.5085 77.856C65.1058 77.4613 65.8845 77.264 66.8445 77.264C67.3672 77.264 67.8525 77.3173 68.3005 77.424C68.7592 77.52 69.1858 77.6587 69.5805 77.84L69.1005 78.96C68.8658 78.8533 68.6152 78.7627 68.3485 78.688C68.0925 78.6027 67.8312 78.5387 67.5645 78.496C67.2978 78.4427 67.0258 78.416 66.7485 78.416C66.1725 78.416 65.7298 78.512 65.4205 78.704C65.1218 78.8853 64.9725 79.136 64.9725 79.456C64.9725 79.6907 65.0418 79.8933 65.1805 80.064C65.3192 80.224 65.5485 80.384 65.8685 80.544C66.1992 80.6933 66.6365 80.8747 67.1805 81.088C67.7245 81.2907 68.1885 81.4987 68.5725 81.712C68.9565 81.9253 69.2498 82.1867 69.4525 82.496C69.6552 82.7947 69.7565 83.1733 69.7565 83.632ZM136.819 86H135.379V80.672H129.523V86H128.083V74.576H129.523V79.408H135.379V74.576H136.819V86ZM147.207 81.696C147.207 82.4107 147.111 83.0453 146.919 83.6C146.737 84.144 146.471 84.608 146.119 84.992C145.777 85.376 145.356 85.6693 144.855 85.872C144.364 86.064 143.815 86.16 143.207 86.16C142.641 86.16 142.119 86.064 141.639 85.872C141.159 85.6693 140.743 85.376 140.391 84.992C140.039 84.608 139.761 84.144 139.559 83.6C139.367 83.0453 139.271 82.4107 139.271 81.696C139.271 80.7467 139.431 79.9467 139.751 79.296C140.071 78.6347 140.529 78.1333 141.127 77.792C141.724 77.44 142.433 77.264 143.255 77.264C144.033 77.264 144.716 77.44 145.303 77.792C145.9 78.1333 146.364 78.6347 146.695 79.296C147.036 79.9467 147.207 80.7467 147.207 81.696ZM140.727 81.696C140.727 82.368 140.812 82.9547 140.983 83.456C141.164 83.9467 141.441 84.3253 141.815 84.592C142.188 84.8587 142.663 84.992 143.239 84.992C143.815 84.992 144.289 84.8587 144.663 84.592C145.036 84.3253 145.308 83.9467 145.479 83.456C145.66 82.9547 145.751 82.368 145.751 81.696C145.751 81.0133 145.66 80.432 145.479 79.952C145.297 79.472 145.02 79.104 144.647 78.848C144.284 78.5813 143.809 78.448 143.223 78.448C142.348 78.448 141.713 78.736 141.319 79.312C140.924 79.888 140.727 80.6827 140.727 81.696ZM156.606 77.424V86H155.454L155.246 84.864H155.182C155.001 85.1627 154.766 85.408 154.478 85.6C154.19 85.792 153.875 85.9307 153.534 86.016C153.193 86.112 152.835 86.16 152.462 86.16C151.779 86.16 151.203 86.0533 150.734 85.84C150.275 85.616 149.929 85.2747 149.694 84.816C149.459 84.3573 149.342 83.7653 149.342 83.04V77.424H150.766V82.944C150.766 83.6267 150.921 84.1387 151.23 84.48C151.539 84.8213 152.019 84.992 152.67 84.992C153.31 84.992 153.811 84.8747 154.174 84.64C154.547 84.3947 154.809 84.0427 154.958 83.584C155.118 83.1147 155.198 82.5493 155.198 81.888V77.424H156.606ZM163.329 77.264C163.489 77.264 163.659 77.2747 163.841 77.296C164.033 77.3067 164.198 77.328 164.337 77.36L164.161 78.656C164.022 78.624 163.867 78.5973 163.697 78.576C163.537 78.5547 163.382 78.544 163.233 78.544C162.902 78.544 162.587 78.6133 162.289 78.752C161.99 78.8907 161.723 79.088 161.489 79.344C161.254 79.5893 161.067 79.888 160.929 80.24C160.801 80.592 160.737 80.9867 160.737 81.424V86H159.329V77.424H160.481L160.641 78.992H160.705C160.886 78.672 161.105 78.384 161.361 78.128C161.617 77.8613 161.91 77.6533 162.241 77.504C162.571 77.344 162.934 77.264 163.329 77.264ZM171.522 83.632C171.522 84.1867 171.383 84.6507 171.106 85.024C170.829 85.3973 170.434 85.68 169.922 85.872C169.41 86.064 168.802 86.16 168.098 86.16C167.501 86.16 166.983 86.112 166.546 86.016C166.119 85.92 165.741 85.7867 165.41 85.616V84.336C165.751 84.5067 166.162 84.6667 166.642 84.816C167.133 84.9547 167.629 85.024 168.13 85.024C168.845 85.024 169.362 84.912 169.682 84.688C170.002 84.4533 170.162 84.144 170.162 83.76C170.162 83.5467 170.103 83.3547 169.986 83.184C169.869 83.0133 169.655 82.8427 169.346 82.672C169.047 82.5013 168.615 82.3093 168.05 82.096C167.495 81.8827 167.021 81.6693 166.626 81.456C166.231 81.2427 165.927 80.9867 165.714 80.688C165.501 80.3893 165.394 80.0053 165.394 79.536C165.394 78.8107 165.687 78.2507 166.274 77.856C166.871 77.4613 167.65 77.264 168.61 77.264C169.133 77.264 169.618 77.3173 170.066 77.424C170.525 77.52 170.951 77.6587 171.346 77.84L170.866 78.96C170.631 78.8533 170.381 78.7627 170.114 78.688C169.858 78.6027 169.597 78.5387 169.33 78.496C169.063 78.4427 168.791 78.416 168.514 78.416C167.938 78.416 167.495 78.512 167.186 78.704C166.887 78.8853 166.738 79.136 166.738 79.456C166.738 79.6907 166.807 79.8933 166.946 80.064C167.085 80.224 167.314 80.384 167.634 80.544C167.965 80.6933 168.402 80.8747 168.946 81.088C169.49 81.2907 169.954 81.4987 170.338 81.712C170.722 81.9253 171.015 82.1867 171.218 82.496C171.421 82.7947 171.522 83.1733 171.522 83.632ZM247.826 86L244.066 75.984H244.002C244.024 76.1973 244.04 76.4693 244.05 76.8C244.072 77.1307 244.088 77.4933 244.098 77.888C244.109 78.272 244.114 78.6667 244.114 79.072V86H242.786V74.576H244.914L248.434 83.936H248.498L252.082 74.576H254.194V86H252.77V78.976C252.77 78.6027 252.776 78.2347 252.786 77.872C252.797 77.4987 252.813 77.152 252.834 76.832C252.856 76.5013 252.872 76.224 252.882 76H252.818L249.01 86H247.826ZM258.518 77.424V86H257.11V77.424H258.518ZM257.83 74.208C258.043 74.208 258.23 74.2827 258.39 74.432C258.561 74.5707 258.646 74.7947 258.646 75.104C258.646 75.4027 258.561 75.6267 258.39 75.776C258.23 75.9253 258.043 76 257.83 76C257.595 76 257.398 75.9253 257.238 75.776C257.078 75.6267 256.998 75.4027 256.998 75.104C256.998 74.7947 257.078 74.5707 257.238 74.432C257.398 74.2827 257.595 74.208 257.83 74.208ZM265.363 77.264C266.387 77.264 267.16 77.5147 267.683 78.016C268.206 78.5067 268.467 79.3067 268.467 80.416V86H267.075V80.512C267.075 79.8187 266.92 79.3013 266.611 78.96C266.302 78.6187 265.816 78.448 265.155 78.448C264.206 78.448 263.55 78.7147 263.187 79.248C262.824 79.7813 262.643 80.5493 262.643 81.552V86H261.235V77.424H262.371L262.579 78.592H262.659C262.851 78.2933 263.086 78.048 263.363 77.856C263.651 77.6533 263.966 77.504 264.307 77.408C264.648 77.312 265 77.264 265.363 77.264ZM278.294 77.424V86H277.142L276.934 84.864H276.87C276.688 85.1627 276.454 85.408 276.166 85.6C275.878 85.792 275.563 85.9307 275.222 86.016C274.88 86.112 274.523 86.16 274.15 86.16C273.467 86.16 272.891 86.0533 272.422 85.84C271.963 85.616 271.616 85.2747 271.382 84.816C271.147 84.3573 271.03 83.7653 271.03 83.04V77.424H272.454V82.944C272.454 83.6267 272.608 84.1387 272.918 84.48C273.227 84.8213 273.707 84.992 274.358 84.992C274.998 84.992 275.499 84.8747 275.862 84.64C276.235 84.3947 276.496 84.0427 276.646 83.584C276.806 83.1147 276.886 82.5493 276.886 81.888V77.424H278.294ZM283.88 85.008C284.094 85.008 284.312 84.992 284.536 84.96C284.76 84.9173 284.942 84.8747 285.08 84.832V85.904C284.931 85.9787 284.718 86.0373 284.44 86.08C284.163 86.1333 283.896 86.16 283.64 86.16C283.192 86.16 282.776 86.0853 282.392 85.936C282.019 85.776 281.715 85.504 281.48 85.12C281.246 84.736 281.128 84.1973 281.128 83.504V78.512H279.912V77.84L281.144 77.28L281.704 75.456H282.536V77.424H285.016V78.512H282.536V83.472C282.536 83.9947 282.659 84.384 282.904 84.64C283.16 84.8853 283.486 85.008 283.88 85.008ZM292.382 83.632C292.382 84.1867 292.243 84.6507 291.966 85.024C291.688 85.3973 291.294 85.68 290.782 85.872C290.27 86.064 289.662 86.16 288.958 86.16C288.36 86.16 287.843 86.112 287.406 86.016C286.979 85.92 286.6 85.7867 286.27 85.616V84.336C286.611 84.5067 287.022 84.6667 287.502 84.816C287.992 84.9547 288.488 85.024 288.99 85.024C289.704 85.024 290.222 84.912 290.542 84.688C290.862 84.4533 291.022 84.144 291.022 83.76C291.022 83.5467 290.963 83.3547 290.846 83.184C290.728 83.0133 290.515 82.8427 290.206 82.672C289.907 82.5013 289.475 82.3093 288.91 82.096C288.355 81.8827 287.88 81.6693 287.486 81.456C287.091 81.2427 286.787 80.9867 286.574 80.688C286.36 80.3893 286.254 80.0053 286.254 79.536C286.254 78.8107 286.547 78.2507 287.134 77.856C287.731 77.4613 288.51 77.264 289.47 77.264C289.992 77.264 290.478 77.3173 290.926 77.424C291.384 77.52 291.811 77.6587 292.206 77.84L291.726 78.96C291.491 78.8533 291.24 78.7627 290.974 78.688C290.718 78.6027 290.456 78.5387 290.19 78.496C289.923 78.4427 289.651 78.416 289.374 78.416C288.798 78.416 288.355 78.512 288.046 78.704C287.747 78.8853 287.598 79.136 287.598 79.456C287.598 79.6907 287.667 79.8933 287.806 80.064C287.944 80.224 288.174 80.384 288.494 80.544C288.824 80.6933 289.262 80.8747 289.806 81.088C290.35 81.2907 290.814 81.4987 291.198 81.712C291.582 81.9253 291.875 82.1867 292.078 82.496C292.28 82.7947 292.382 83.1733 292.382 83.632Z" fill="#CFCFCF" fill-opacity="0.8"/>
</svg>
